<?xml version="1.0" encoding="utf-8"?>
<!-- Generator: Adobe Illustrator 25.0.1, SVG Export Plug-In . SVG Version: 6.00 Build 0)  -->
<svg version="1.1" id="Layer_1" xmlns="http://www.w3.org/2000/svg" xmlns:xlink="http://www.w3.org/1999/xlink" x="0px" y="0px"
	 viewBox="0 0 1365 346" style="enable-background:new 0 0 1365 346;" xml:space="preserve">
<style type="text/css">
	.st0{display:none;fill:#18181D;}
</style>
<path class="st0" d="M462.7,74.4c19.4,0,34.3,4.4,45.4,13.8c10.5,8.9,15.8,20.8,15.8,36c0,11.1-2.8,20.5-8.3,28.2
	c-5.5,7.2-13,12.7-23,16.3c13,2.5,23,7.8,29.6,15.8c6.7,8,10,18.8,10,32.1c0,19.9-6.9,34.3-20.5,43.7c-11.6,7.8-28,11.6-49,11.6
	h-90.2V74.4H462.7L462.7,74.4z M402.6,158.2h52c13.8,0,23.8-2.5,29.9-7.2c6.1-5,9.2-12.7,9.2-23.2c0-10-3-17.2-9.2-21.6
	c-6.1-4.7-16.1-6.9-29.4-6.9h-52.6L402.6,158.2L402.6,158.2z M402.6,247.1h55.9c12.7,0,22.7-2.2,29.9-6.1
	c8.9-5.3,13.6-13.6,13.6-24.9c0-11.3-3.6-20.2-10.5-25.5c-6.9-5.3-17.7-7.8-32.1-7.8h-56.7L402.6,247.1L402.6,247.1z"/>
<path class="st0" d="M593.5,128.9v143.1h-29.4V128.9H593.5z M593.5,103.8h-29.4V74.4h29.4V103.8z"/>
<path class="st0" d="M1164.7,272V128.9h29.3V160c5.3-16.1,21.4-31.2,47.5-31.2h9.8v29.3h-14.5c-27.1,0-42.8,10.7-42.8,26.8v87
	L1164.7,272L1164.7,272z"/>
<path class="st0" d="M1119.3,140.8c-10-10.5-25.5-15.8-46.5-15.8c-17.7,0-32.1,3-42.7,9.7c-12.2,7.2-19.9,18.8-23,34.3l29.1,2.5
	c1.6-8,5.8-13.8,12.4-17.7c5.5-3.3,13-5,22.2-5c21.6,0,32.4,10,32.4,29.9v1.9h-44.5c-20.6,0-36.7,7.1-48.1,21.4
	c-6.4,8.1-9.2,16.8-9.2,26c0,24.3,21.1,43.9,47.1,43.9c2.6,0,9.9-0.3,14-0.8c1.7-0.2,3-0.5,4.3-0.8c6.3-1.1,12.2-2.8,17.5-5.3
	c7.3-3.7,13.4-8.8,18.5-14.8v21.8h29.4v-91.3C1132.3,163.3,1127.8,150,1119.3,140.8L1119.3,140.8z M1103,212.9
	c-0.7,9.9-5.1,22.4-13.3,29.3c-8.9,7.5-19.4,7.5-31.9,7.5c-7.5,0-13.6-1.9-18-5.5c-4.7-3.6-6.9-8-6.9-13.6
	c0-16.6,11.8-25.7,35.2-27.4h34.8V212.9z"/>
<path class="st0" d="M933.4,74.4l-75.3,165.4L782.7,74.4h-33.8V272h29.3V128.9L843.4,272h29.4l65.3-143.4V272h29.4V74.4H933.4z"/>
<path class="st0" d="M1332.3,247.1v-88.9h32.5v-29.3h-32.5V89.1H1303v39.9h-26.5v29.3h26.5v82.9c0,19,10.7,31,30.9,31h30.9v-24.9
	L1332.3,247.1L1332.3,247.1z"/>
<path class="st0" d="M682.2,247.1v-88.9h32.5v-29.3h-32.5V89.1H653v39.9h-26.5v29.3H653v82.9c0,19,10.7,31,30.9,31h31v-24.9
	L682.2,247.1L682.2,247.1z"/>
<path class="st0" d="M187.1,248.6H80.7v9.3h106.4V248.6z"/>
<path class="st0" d="M107.2,306.5H27.5v9.3h79.8V306.5z"/>
<path class="st0" d="M54,248.7H0.9v9.3H54V248.7z"/>
<path class="st0" d="M187.1,221.8h-79.8v9.3h79.8V221.8z"/>
<path class="st0" d="M80.6,221.8H27.5v9.3h53.1V221.8z"/>
<path class="st0" d="M187.1,101.6H54v9.3h133V101.6z"/>
<path class="st0" d="M80.6,70.7H27.5V80h53.1V70.7z"/>
<path class="st0" d="M257.6,160c0,0,0.1-0.1,0.2-0.2c14.1-24.7,17.8-53.4,10.4-80.9s-25.2-50.4-49.9-64.5
	c-16.1-9.2-34.4-14.1-52.9-14.1H54.1v13.3h111.3h0.4c15.6,0,31.4,4,45.9,12.3c37.7,21.6,54.5,65.5,43.5,105.6
	c3.1-13,2.9-26.7-0.7-39.9c-5.7-21-19.3-38.5-38.1-49.3c-12.3-7.1-26.3-10.7-40.4-10.8H80.7v13.3h95.5c11.4,0,23,2.9,33.6,9
	c28.4,16.3,40.6,49.8,31,79.7c5.9-22.7-3.7-47.5-25-59.8c-8.1-4.6-17.2-7-26.4-7.1h-82.2V80h82.2c6.7,0,13.5,1.7,19.8,5.3
	c19.2,10.9,25.8,35.3,15,54.5c-11.6-4.3-24.1-6.7-37.2-6.7H80.7v13.3h106.4c45.4,0.1,83.2,32.7,91.4,75.8c-8.1-35.5-39.9-62-77.8-62
	H54v13.3h146.9c33.4,0.1,61,24.8,65.6,56.9c-4.5-24.7-26.3-43.6-52.3-43.6H54.1v13.3h160.1c22,0,39.9,17.9,39.9,39.9
	c0,22-17.9,39.9-39.9,39.9H27.5v13.3h186.7c26,0,47.8-18.8,52.3-43.6c-4.7,32.1-32.3,56.9-65.8,56.9h-66.8v13.3h66.8
	c36.4,0,67.2-24.5,76.7-58c-10,40.7-46.6,70.9-90.3,71H54.2v13.3h132.7c58.7,0,106.5-47.8,106.5-106.5c0-31.6-13.8-60-35.8-79.6
	L257.6,160z"/>
<image style="overflow:visible;" width="389" height="389" xlink:href="../../../../../Downloads/icon.png"  transform="matrix(0.829 0 0 0.829 534.088 11.75)">
</image>
</svg>
